<?xml version="1.0" encoding="UTF-8"?><svg id="_레이어_1" xmlns="http://www.w3.org/2000/svg" xmlns:xlink="http://www.w3.org/1999/xlink" viewBox="0 0 40 40"><defs><style>.cls-1{fill:#fff;}.cls-2{fill:url(#_무제_그라디언트_2);}.cls-3{fill:#552b8f;}.cls-4{fill:#c78cff;}</style><linearGradient id="_무제_그라디언트_2" x1="18.56" y1="26.57" x2="19.93" y2="25.29" gradientUnits="userSpaceOnUse"><stop offset=".18" stop-color="#000" stop-opacity="0"/><stop offset="1" stop-color="#000" stop-opacity=".3"/></linearGradient></defs><rect class="cls-3" x="4.4" y="3.27" width="31.19" height="33.46" rx="2.83" ry="2.83"/><path class="cls-1" d="m29.94,16.52l-1.66-1.69c-2.25-2.25-4.39-3.05-6.89-.55l-5.51,5.59c-.38.38-.38,1,0,1.38l.27.27s0,0,0,0l3,2.99h-5.28c-1.58,0-2.11-.91-2.11-2.33v-4.4c0-1.41.53-2.33,2.11-2.33h2.51s.07-.01.09-.04l2.77-2.81c.08-.08.02-.22-.09-.22h-5.49c-3.53,0-4.75,2.09-4.75,5.27v4.63c0,3.18,1.22,5.27,4.75,5.27h7.83c.4,0,.73-.33.73-.73h0v-3.25h0s0-.05-.02-.06h0s0,0,0,0l-2.81-2.89c1.46-1.57,2.54-2.66,3.35-3.42h0s.33-.33.33-.33c1-1,2.02-1.27,3.14-.15l1.37,1.37h0s.33.32.33.32c.42.42.69.84.81,1.26.02.07.04.14.05.22,0,0,0,.08,0,.16,0,.35-.13.67-.13.67-.16.42-.44.7-.58.82-1.18,1.17-.78.78-1.92,1.91-.03.02-.05.08-.05.11v3.78c0,.18.21.26.34.14l4.03-4.03c2.5-2.5,1.74-4.74-.51-6.99Z"/><path class="cls-2" d="m19.16,24.53h-2.73l3.07,3.06h2c.2,0,.38-.08.52-.21l-2.85-2.85Z"/><path class="cls-4" d="m15.61,20.64c.02.23.11.45.29.62l6.12,6.11c.13-.13.21-.31.21-.52v-3.26s0-.04-.02-.05l-2.82-2.9h-3.79Z"/></svg>