<svg width="115" height="15" viewBox="0 0 115 15" fill="none" xmlns="http://www.w3.org/2000/svg">
<path d="M33.14 3.77002H26.4C24.33 3.77002 23.62 5.06002 23.62 7.01002V8.97002C23.62 10.93 24.33 12.21 26.4 12.21H33.14V10.33H26.52C25.6 10.33 25.29 9.77002 25.29 8.90002V7.09002C25.29 6.22002 25.6 5.66002 26.52 5.66002H33.13V3.78002L33.14 3.77002ZM41.91 5.65002C43.01 5.65002 43.52 6.41002 43.52 7.99002C43.52 9.57002 43.01 10.33 41.91 10.33H37.75C36.65 10.33 36.14 9.57002 36.14 7.99002C36.14 6.41002 36.65 5.65002 37.75 5.65002H41.91ZM37.59 3.77002C35.88 3.77002 34.57 5.00002 34.57 7.99002C34.57 10.98 35.88 12.21 37.59 12.21H42.26C43.97 12.21 45.28 10.98 45.28 7.99002C45.28 5.00002 43.97 3.77002 42.26 3.77002H37.59ZM56.63 0.0200195H54.92V4.42002C54.56 4.02002 54.07 3.77002 53.49 3.77002H49.45C47.38 3.77002 46.67 5.06002 46.67 7.01002V8.97002C46.67 10.93 47.38 12.21 49.45 12.21H53.49C54.13 12.21 54.65 11.9 55.02 11.43L55.12 12.21H56.62V0.0200195H56.63ZM54.92 8.89002C54.92 9.76002 54.31 10.32 53.39 10.32H49.57C48.65 10.32 48.34 9.76002 48.34 8.89002V7.08002C48.34 6.21002 48.65 5.65002 49.57 5.65002H53.39C54.31 5.65002 54.92 6.21002 54.92 7.08002V8.89002ZM68.08 10.32H61.28C60.45 10.32 60.12 9.94002 60.12 9.07002V8.93002H68.22V7.01002C68.22 5.05002 67.51 3.77002 65.44 3.77002H61.19C59.12 3.77002 58.41 5.06002 58.41 7.01002V8.97002C58.41 10.93 59.12 12.21 61.19 12.21H68.07V10.33L68.08 10.32ZM60.13 6.90002C60.13 6.03002 60.46 5.65002 61.29 5.65002H65.36C66.19 5.65002 66.52 6.03002 66.52 6.90002V7.14002H60.13V6.90002Z" fill="white"/>
<path d="M95.64 0.0200195H93.9299V2.08002H95.64V0.0200195Z" fill="#C78CFF"/>
<path d="M73.2099 12.21H77.1099C77.7499 12.21 78.2699 11.9 78.6399 11.43L78.7399 12.21H80.2399V3.77002H78.5299V8.90002C78.5299 9.77002 77.9199 10.33 76.9999 10.33H73.3699C72.4499 10.33 72.1399 9.77002 72.1399 8.90002V3.77002H70.4299V8.97002C70.4299 10.93 71.1399 12.21 73.2099 12.21Z" fill="white"/>
<path d="M85.27 5.65002H88.9C89.82 5.65002 90.13 6.21002 90.13 7.08002V12.21H91.84V7.01002C91.84 5.05002 91.13 3.77002 89.06 3.77002H85.16C84.52 3.77002 83.99 4.08002 83.63 4.55002L83.53 3.77002H82.03V12.21H83.74V7.03002C83.77 6.20002 84.36 5.65002 85.27 5.65002Z" fill="white"/>
<path d="M95.64 3.34998H93.9299V12.21H95.64V3.34998Z" fill="white"/>
<path d="M97.11 5.24003H98.4V8.97003C98.4 10.93 99.11 12.21 101.18 12.21H103.35V10.33H101.34C100.42 10.33 100.11 9.77003 100.11 8.90003V5.24003H103.2V3.36003H100.11V0.0300293H98.4V3.36003H97.11V5.24003Z" fill="white"/>
<path d="M105.43 14.02H112.02C114.09 14.02 114.8 12.73 114.8 10.78V3.77002H113.09V7.08002C113.06 7.91002 112.45 8.44002 111.56 8.44002H107.93C107.01 8.44002 106.7 7.88002 106.7 7.01002V3.77002H104.99V7.08002C104.99 9.04002 105.7 10.32 107.77 10.32H111.67C112.25 10.32 112.74 10.07 113.1 9.69002V10.7C113.1 11.57 112.79 12.13 111.87 12.13H105.45V14.01L105.43 14.02Z" fill="white"/>
<path d="M16.18 4.27999L14.9 2.97998C13.17 1.24998 11.52 0.639984 9.59999 2.55998L5.36 6.85999C5.07 7.14999 5.07 7.62998 5.36 7.91998L5.56999 8.12998L7.88 10.43H3.81999C2.60999 10.43 2.2 9.72998 2.2 8.63998V5.25998C2.2 4.16998 2.60999 3.46998 3.81999 3.46998H5.75C5.75 3.46998 5.79999 3.45999 5.81999 3.43999L7.95 1.27999C8.01 1.21999 7.97 1.10999 7.88 1.10999H3.66C0.940004 1.10999 0 2.71998 0 5.16998V8.73998C0 11.19 0.940004 12.8 3.66 12.8H9.67999C9.98999 12.8 10.24 12.55 10.24 12.24V9.73998C10.24 9.73998 10.24 9.69999 10.22 9.68999L8.06 7.46998C9.18 6.25998 10.02 5.41998 10.64 4.83998L10.89 4.58998C11.66 3.81998 12.45 3.60998 13.3 4.46998L14.35 5.52999L14.6 5.77999C14.92 6.09999 15.13 6.41998 15.22 6.74998C15.24 6.80998 15.25 6.85998 15.26 6.91998C15.26 6.91998 15.26 6.97999 15.26 7.03999C15.26 7.30999 15.16 7.55998 15.16 7.55998C15.04 7.87998 14.82 8.09999 14.71 8.18999C13.8 9.08999 14.11 8.78998 13.23 9.65998C13.21 9.67998 13.19 9.71998 13.19 9.74998V12.66C13.19 12.8 13.35 12.86 13.45 12.77L16.55 9.66998C18.47 7.74998 17.89 6.02998 16.16 4.29998L16.18 4.27999Z" fill="#42247C"/>
<path d="M7.89005 10.4399H5.79004L8.15004 12.7999H9.69005C9.84005 12.7999 9.98004 12.7399 10.09 12.6399L7.89005 10.4499V10.4399Z" fill="url(#paint0_linear_13_48)"/>
<path d="M5.15001 7.44995C5.16001 7.61995 5.24001 7.79995 5.37001 7.92995L10.08 12.6299C10.18 12.5299 10.24 12.3899 10.24 12.2299V9.71995C10.24 9.71995 10.24 9.68995 10.22 9.67995L8.05002 7.44995H5.14001H5.15001Z" fill="#C78CFF"/>
<defs>
<linearGradient id="paint0_linear_13_48" x1="7.41004" y1="12.0199" x2="8.56004" y2="10.9699" gradientUnits="userSpaceOnUse">
<stop offset="0.18" stop-color="white" stop-opacity="0"/>
<stop offset="0.99" stop-color="white" stop-opacity="0.3"/>
</linearGradient>
</defs>
</svg>
