<svg width="36" height="45" viewBox="0 0 36 45" fill="none" xmlns="http://www.w3.org/2000/svg">
<path d="M8.21997 24.8801H2.91998C1.28998 24.8801 0.72998 25.8901 0.72998 27.4301V28.9701C0.72998 30.5101 1.28998 31.5201 2.91998 31.5201H8.21997V30.0401H3.01996C2.28996 30.0401 2.04996 29.6001 2.04996 28.9101V27.4901C2.04996 26.8101 2.29996 26.3601 3.01996 26.3601H8.21997V24.8801ZM15.11 26.3601C15.98 26.3601 16.37 26.9601 16.37 28.2001C16.37 29.4401 15.97 30.0401 15.11 30.0401H11.84C10.97 30.0401 10.58 29.4401 10.58 28.2001C10.58 26.9601 10.98 26.3601 11.84 26.3601H15.11ZM11.71 24.8801C10.37 24.8801 9.33997 25.8501 9.33997 28.2001C9.33997 30.5501 10.37 31.5201 11.71 31.5201H15.38C16.72 31.5201 17.75 30.5501 17.75 28.2001C17.75 25.8501 16.72 24.8801 15.38 24.8801H11.71ZM26.69 21.9301H25.35V25.3901C25.07 25.0801 24.68 24.8801 24.23 24.8801H21.05C19.42 24.8801 18.86 25.8901 18.86 27.4301V28.9701C18.86 30.5101 19.42 31.5201 21.05 31.5201H24.23C24.73 31.5201 25.14 31.2801 25.43 30.9101L25.51 31.5201H26.69V21.9301ZM25.35 28.9101C25.35 29.5901 24.87 30.0401 24.15 30.0401H21.14C20.41 30.0401 20.17 29.6001 20.17 28.9101V27.4901C20.17 26.8101 20.42 26.3601 21.14 26.3601H24.15C24.88 26.3601 25.35 26.8001 25.35 27.4901V28.9101ZM35.7 30.0401H30.36C29.71 30.0401 29.45 29.7401 29.45 29.0601V28.9501H35.82V27.4401C35.82 25.9001 35.26 24.8901 33.63 24.8901H30.29C28.66 24.8901 28.1 25.9001 28.1 27.4401V28.9801C28.1 30.5201 28.66 31.5301 30.29 31.5301H35.7V30.0501V30.0401ZM29.44 27.3501C29.44 26.6701 29.7 26.3701 30.35 26.3701H33.55C34.2 26.3701 34.46 26.6701 34.46 27.3501V27.5401H29.43V27.3501H29.44ZM3.10995 43.1201H6.16998C6.66998 43.1201 7.07996 42.8801 7.36996 42.5101L7.44998 43.1201H8.62997V36.4801H7.28998V40.5101C7.28998 41.1901 6.80997 41.6401 6.08997 41.6401H3.23996C2.50996 41.6401 2.26996 41.2001 2.26996 40.5101V36.4801H0.929962V40.5701C0.929962 42.1101 1.48996 43.1201 3.11996 43.1201H3.10995ZM12.6 37.9601H15.45C16.18 37.9601 16.42 38.4001 16.42 39.0901V43.1201H17.76V39.0301C17.76 37.4901 17.2 36.4801 15.57 36.4801H12.51C12.01 36.4801 11.59 36.7201 11.31 37.0901L11.23 36.4801H10.05V43.1201H11.39V39.0501C11.41 38.3901 11.88 37.9701 12.59 37.9701L12.6 37.9601ZM19.41 36.1501V43.1201H20.75V36.1501H19.41ZM21.91 37.6301H22.93V40.5601C22.93 42.1001 23.49 43.1101 25.12 43.1101H26.83V41.6301H25.25C24.52 41.6301 24.28 41.1901 24.28 40.5001V37.6201H26.71V36.1401H24.28V33.5201H22.94V36.1401H21.92V37.6201L21.91 37.6301ZM28.45 44.5401H33.63C35.26 44.5401 35.82 43.5301 35.82 41.9901V36.4801H34.48V39.0901C34.46 39.7501 33.98 40.1601 33.28 40.1601H30.43C29.7 40.1601 29.46 39.7201 29.46 39.0301V36.4801H28.12V39.0901C28.12 40.6301 28.68 41.6401 30.31 41.6401H33.37C33.83 41.6401 34.21 41.4401 34.49 41.1401V41.9401C34.49 42.6201 34.24 43.0701 33.52 43.0701H28.47V44.5501L28.45 44.5401Z" fill="black"/>
<path d="M20.7399 33.53H19.3999V35.15H20.7399V33.53Z" fill="#C78CFF"/>
<path d="M25.05 4.15999L23.77 2.85999C22.04 1.12999 20.39 0.51999 18.47 2.43999L14.23 6.73999C13.94 7.02999 13.94 7.50999 14.23 7.79999L14.44 8.00999L16.75 10.31H12.69C11.48 10.31 11.07 9.60999 11.07 8.51999V5.13999C11.07 4.04999 11.48 3.34999 12.69 3.34999H14.62C14.62 3.34999 14.67 3.33999 14.69 3.31999L16.82 1.15999C16.88 1.09999 16.84 0.98999 16.75 0.98999H12.53C9.81 0.98999 8.87 2.59999 8.87 5.04999V8.61999C8.87 11.07 9.81 12.68 12.53 12.68H18.55C18.86 12.68 19.11 12.43 19.11 12.12V9.61999C19.11 9.61999 19.11 9.57999 19.09 9.56999L16.93 7.34999C18.05 6.13999 18.89 5.29999 19.51 4.71999L19.76 4.46999C20.53 3.69999 21.32 3.48999 22.17 4.34999L23.22 5.40999L23.47 5.65999C23.79 5.97999 24 6.29999 24.09 6.62999C24.11 6.68999 24.12 6.73999 24.13 6.79999C24.13 6.79999 24.13 6.85999 24.13 6.91999C24.13 7.18999 24.03 7.43999 24.03 7.43999C23.91 7.75999 23.69 7.97999 23.58 8.06999C22.67 8.96999 22.98 8.66999 22.1 9.53999C22.08 9.55999 22.06 9.59999 22.06 9.62999V12.54C22.06 12.68 22.22 12.74 22.32 12.65L25.42 9.54999C27.34 7.62999 26.76 5.90999 25.03 4.17999L25.05 4.15999Z" fill="#42247C"/>
<path d="M16.76 10.33H14.66L17.02 12.69H18.56C18.71 12.69 18.85 12.63 18.96 12.53L16.76 10.34V10.33Z" fill="url(#paint0_linear_13_49)"/>
<path d="M14.02 7.33997C14.03 7.50997 14.11 7.68997 14.24 7.81997L18.95 12.52C19.05 12.42 19.11 12.28 19.11 12.12V9.60997C19.11 9.60997 19.11 9.57997 19.09 9.56997L16.92 7.33997H14.01H14.02Z" fill="#C78CFF"/>
<defs>
<linearGradient id="paint0_linear_13_49" x1="16.28" y1="11.9" x2="17.42" y2="10.86" gradientUnits="userSpaceOnUse">
<stop offset="0.18" stop-color="white" stop-opacity="0"/>
<stop offset="0.99" stop-color="white" stop-opacity="0.3"/>
</linearGradient>
</defs>
</svg>
