<svg width="36" height="23" viewBox="0 0 36 23" fill="none" xmlns="http://www.w3.org/2000/svg">
<path d="M8.21997 2.95H2.91998C1.28998 2.95 0.72998 3.96 0.72998 5.5V7.04C0.72998 8.58 1.28998 9.59 2.91998 9.59H8.21997V8.11H3.01996C2.28996 8.11 2.04996 7.67 2.04996 6.98V5.56C2.04996 4.88 2.29996 4.43 3.01996 4.43H8.21997V2.95ZM15.11 4.43C15.98 4.43 16.37 5.03 16.37 6.27C16.37 7.51 15.97 8.11 15.11 8.11H11.84C10.97 8.11 10.58 7.51 10.58 6.27C10.58 5.03 10.98 4.43 11.84 4.43H15.11ZM11.71 2.95C10.37 2.95 9.33997 3.92 9.33997 6.27C9.33997 8.62 10.37 9.59 11.71 9.59H15.38C16.72 9.59 17.75 8.62 17.75 6.27C17.75 3.92 16.72 2.95 15.38 2.95H11.71ZM26.69 0H25.35V3.46C25.07 3.15 24.68 2.95 24.23 2.95H21.05C19.42 2.95 18.86 3.96 18.86 5.5V7.04C18.86 8.58 19.42 9.59 21.05 9.59H24.23C24.73 9.59 25.14 9.35 25.43 8.98L25.51 9.59H26.69V0ZM25.35 6.98C25.35 7.66 24.87 8.11 24.15 8.11H21.14C20.41 8.11 20.17 7.67 20.17 6.98V5.56C20.17 4.88 20.42 4.43 21.14 4.43H24.15C24.88 4.43 25.35 4.87 25.35 5.56V6.98ZM35.7 8.11H30.36C29.71 8.11 29.45 7.81 29.45 7.13V7.02H35.82V5.51C35.82 3.97 35.26 2.96 33.63 2.96H30.29C28.66 2.96 28.1 3.97 28.1 5.51V7.05C28.1 8.59 28.66 9.6 30.29 9.6H35.7V8.12V8.11ZM29.44 5.42C29.44 4.74 29.7 4.44 30.35 4.44H33.55C34.2 4.44 34.46 4.74 34.46 5.42V5.61H29.43V5.42H29.44ZM3.10995 21.19H6.16998C6.66998 21.19 7.07996 20.95 7.36996 20.58L7.44998 21.19H8.62997V14.55H7.28998V18.58C7.28998 19.26 6.80997 19.71 6.08997 19.71H3.23996C2.50996 19.71 2.26996 19.27 2.26996 18.58V14.55H0.929962V18.64C0.929962 20.18 1.48996 21.19 3.11996 21.19H3.10995ZM12.6 16.03H15.45C16.18 16.03 16.42 16.47 16.42 17.16V21.19H17.76V17.1C17.76 15.56 17.2 14.55 15.57 14.55H12.51C12.01 14.55 11.59 14.79 11.31 15.16L11.23 14.55H10.05V21.19H11.39V17.12C11.41 16.46 11.88 16.04 12.59 16.04L12.6 16.03ZM19.41 14.22V21.19H20.75V14.22H19.41ZM21.91 15.7H22.93V18.63C22.93 20.17 23.49 21.18 25.12 21.18H26.83V19.7H25.25C24.52 19.7 24.28 19.26 24.28 18.57V15.69H26.71V14.21H24.28V11.59H22.94V14.21H21.92V15.69L21.91 15.7ZM28.45 22.61H33.63C35.26 22.61 35.82 21.6 35.82 20.06V14.55H34.48V17.16C34.46 17.82 33.98 18.23 33.28 18.23H30.43C29.7 18.23 29.46 17.79 29.46 17.1V14.55H28.12V17.16C28.12 18.7 28.68 19.71 30.31 19.71H33.37C33.83 19.71 34.21 19.51 34.49 19.21V20.01C34.49 20.69 34.24 21.14 33.52 21.14H28.47V22.62L28.45 22.61Z" fill="black"/>
<path d="M20.7399 11.6H19.3999V13.22H20.7399V11.6Z" fill="#C78CFF"/>
</svg>
