<svg width="92" height="14" viewBox="0 0 92 14" fill="none" xmlns="http://www.w3.org/2000/svg">
<path d="M10.14 3.75H3.39999C1.32999 3.75 0.619995 5.04 0.619995 6.99V8.95C0.619995 10.91 1.32999 12.19 3.39999 12.19H10.14V10.31H3.52C2.6 10.31 2.28999 9.75 2.28999 8.88V7.07C2.28999 6.2 2.6 5.64 3.52 5.64H10.13V3.76L10.14 3.75ZM18.91 5.63C20.01 5.63 20.52 6.39 20.52 7.97C20.52 9.55 20.01 10.31 18.91 10.31H14.75C13.65 10.31 13.14 9.55 13.14 7.97C13.14 6.39 13.65 5.63 14.75 5.63H18.91ZM14.59 3.75C12.88 3.75 11.57 4.98 11.57 7.97C11.57 10.96 12.88 12.19 14.59 12.19H19.26C20.97 12.19 22.28 10.96 22.28 7.97C22.28 4.98 20.97 3.75 19.26 3.75H14.59ZM33.63 0H31.92V4.4C31.56 4 31.07 3.75 30.49 3.75H26.45C24.38 3.75 23.67 5.04 23.67 6.99V8.95C23.67 10.91 24.38 12.19 26.45 12.19H30.49C31.13 12.19 31.65 11.88 32.02 11.41L32.12 12.19H33.62V0H33.63ZM31.92 8.87C31.92 9.74 31.31 10.3 30.39 10.3H26.57C25.65 10.3 25.34 9.74 25.34 8.87V7.06C25.34 6.19 25.65 5.63 26.57 5.63H30.39C31.31 5.63 31.92 6.19 31.92 7.06V8.87ZM45.08 10.3H38.28C37.45 10.3 37.12 9.92 37.12 9.05V8.91H45.22V6.99C45.22 5.03 44.51 3.75 42.44 3.75H38.19C36.12 3.75 35.41 5.04 35.41 6.99V8.95C35.41 10.91 36.12 12.19 38.19 12.19H45.07V10.31L45.08 10.3ZM37.13 6.88C37.13 6.01 37.46 5.63 38.29 5.63H42.36C43.19 5.63 43.52 6.01 43.52 6.88V7.12H37.13V6.88Z" fill="black"/>
<path d="M72.64 0H70.9299V2.06H72.64V0Z" fill="#C78CFF"/>
<path d="M50.2099 12.19H54.1099C54.7499 12.19 55.2699 11.88 55.6399 11.41L55.7399 12.19H57.2399V3.75H55.5299V8.88C55.5299 9.75 54.9199 10.31 53.9999 10.31H50.3699C49.4499 10.31 49.1399 9.75 49.1399 8.88V3.75H47.4299V8.95C47.4299 10.91 48.1399 12.19 50.2099 12.19Z" fill="black"/>
<path d="M62.27 5.63H65.9C66.82 5.63 67.13 6.19 67.13 7.06V12.19H68.84V6.99C68.84 5.03 68.13 3.75 66.06 3.75H62.16C61.52 3.75 60.99 4.06 60.63 4.53L60.53 3.75H59.03V12.19H60.74V7.01C60.77 6.18 61.36 5.63 62.27 5.63Z" fill="black"/>
<path d="M72.64 3.32996H70.9299V12.19H72.64V3.32996Z" fill="black"/>
<path d="M74.11 5.22001H75.4V8.95001C75.4 10.91 76.11 12.19 78.18 12.19H80.35V10.31H78.34C77.42 10.31 77.11 9.75001 77.11 8.88001V5.22001H80.2V3.34001H77.11V0.0100098H75.4V3.34001H74.11V5.22001Z" fill="black"/>
<path d="M82.43 14H89.02C91.09 14 91.8 12.71 91.8 10.76V3.75H90.09V7.06C90.06 7.89 89.45 8.42 88.56 8.42H84.93C84.01 8.42 83.7 7.86 83.7 6.99V3.75H81.99V7.06C81.99 9.02 82.7 10.3 84.77 10.3H88.67C89.25 10.3 89.74 10.05 90.1 9.67V10.68C90.1 11.55 89.79 12.11 88.87 12.11H82.45V13.99L82.43 14Z" fill="black"/>
</svg>
